<svg width="30" height="31" viewBox="0 0 30 31" fill="none" xmlns="http://www.w3.org/2000/svg">
<path fill-rule="evenodd" clip-rule="evenodd" d="M28.496 0L29.9953 26.9876C30.0877 28.6514 28.8139 30.0751 27.1501 30.1675C27.0665 30.1714 27.0664 30.1714 26.9829 30.1722H26.9829H26.9827H3.01722C1.35085 30.1722 0 28.8213 0 27.155C0.00038727 27.1131 0.000580905 27.0922 0.00116159 27.0713C0.00174227 27.0503 0.00270999 27.0294 0.00464545 26.9876L1.50396 0H28.496ZM4.35821 3.01722L3.01722 27.155H26.9827L25.6417 3.01722H4.35821ZM10.4741 6.03444H7.45686V9.80596C7.45686 13.4277 10.9617 16.5947 14.9999 16.5947C19.0381 16.5947 22.543 13.4277 22.543 9.80596V6.03444H19.5257V9.80596C19.5257 11.6893 17.4361 13.5775 14.9999 13.5775C12.5637 13.5775 10.4741 11.6893 10.4741 9.80596V6.03444Z" fill="white"/>
</svg>
