<svg width="28" height="28" viewBox="0 0 28 28" fill="none" xmlns="http://www.w3.org/2000/svg">
<path fill-rule="evenodd" clip-rule="evenodd" d="M3.33341 0.666656H24.6667C26.1395 0.666656 27.3334 1.86056 27.3334 3.33332V24.6667C27.3334 26.1394 26.1395 27.3333 24.6667 27.3333H3.33341C1.86066 27.3333 0.666748 26.1394 0.666748 24.6667V3.33332C0.666748 1.86056 1.86066 0.666656 3.33341 0.666656ZM3.33341 3.33332V24.6667H24.6667V3.33332H3.33341ZM12.8442 14.0058H15.3334V22H18.0001V14.0058H20.6433V11.3392H18.0001V9.99999C18.0001 9.26361 18.597 8.66666 19.3334 8.66666H20.6667V5.99999H19.3334C17.1243 5.99999 15.3334 7.79085 15.3334 9.99999V11.3392H12.8442V14.0058Z" fill="white"/>
</svg>
