<svg width="28" height="28" viewBox="0 0 28 28" fill="none" xmlns="http://www.w3.org/2000/svg">
<path fill-rule="evenodd" clip-rule="evenodd" d="M19.3334 0.666656H8.66675C4.24847 0.666656 0.666748 4.24838 0.666748 8.66666V19.3333C0.666748 23.7516 4.24847 27.3333 8.66675 27.3333H19.3334C23.7517 27.3333 27.3334 23.7516 27.3334 19.3333V8.66666C27.3334 4.24838 23.7517 0.666656 19.3334 0.666656ZM3.33341 8.66666C3.33341 5.72114 5.72123 3.33332 8.66675 3.33332H19.3334C22.2789 3.33332 24.6667 5.72114 24.6667 8.66666V19.3333C24.6667 22.2788 22.2789 24.6667 19.3334 24.6667H8.66675C5.72123 24.6667 3.33341 22.2788 3.33341 19.3333V8.66666ZM14.0001 20.6667C10.3182 20.6667 7.33341 17.6819 7.33341 14C7.33341 10.3181 10.3182 7.33332 14.0001 7.33332C17.682 7.33332 20.6667 10.3181 20.6667 14C20.6667 17.6819 17.682 20.6667 14.0001 20.6667ZM14.0001 18C16.2092 18 18.0001 16.2091 18.0001 14C18.0001 11.7909 16.2092 9.99999 14.0001 9.99999C11.7909 9.99999 10.0001 11.7909 10.0001 14C10.0001 16.2091 11.7909 18 14.0001 18ZM22.0001 7.33332C22.0001 8.0697 21.4031 8.66666 20.6667 8.66666C19.9304 8.66666 19.3334 8.0697 19.3334 7.33332C19.3334 6.59694 19.9304 5.99999 20.6667 5.99999C21.4031 5.99999 22.0001 6.59694 22.0001 7.33332Z" fill="white"/>
</svg>
