<svg width="28" height="26" viewBox="0 0 28 26" fill="none" xmlns="http://www.w3.org/2000/svg">
<path fill-rule="evenodd" clip-rule="evenodd" d="M26.0709 3.42021L28 3.64551L27.1328 5.38339C26.71 6.23089 26.2867 7.07838 25.863 7.92588C25.8127 8.10538 25.7244 8.26274 25.5938 8.46762C25.5392 8.55322 25.3528 8.82553 25.3441 8.83861C25.2949 8.91243 25.2585 8.97065 25.2323 9.01729V12.2742C25.2323 20.6084 17.1667 25.9044 9.54984 25.9044C7.99124 25.9044 6.80705 25.8297 5.45109 25.5338C3.2196 25.0469 1.55894 24.0789 0.799018 22.3871L0.0166501 20.6454L1.91799 20.4706C3.63802 20.3124 5.12934 19.9847 6.2746 19.5459C3.13045 19.0403 1.36848 17.6594 1.36848 15.066V13.7024H2.73206C3.03165 13.7024 3.30179 13.6781 3.54331 13.6335C1.18358 12.2226 0.00166595 9.95926 0.00166595 6.81994C0.0014081 6.68614 0.0014081 6.68614 0.000603451 6.54307C-0.0082613 4.96072 0.0767313 4.11522 0.509906 3.03612C0.787523 2.34454 1.18881 1.70431 1.72887 1.11768L2.75784 0L3.75825 1.14331C7.05505 4.91106 10.314 7.19688 13.6414 7.47337C13.6556 3.9967 16.2832 1.36565 19.7777 1.36565C21.4068 1.36565 22.8846 1.98402 24.0459 3.09903C24.6815 3.22964 25.3566 3.33679 26.0709 3.42021ZM23.0562 5.67522L22.6382 5.58057L22.3495 5.26378C21.6515 4.49782 20.7753 4.0928 19.7777 4.0928C17.7829 4.0928 16.3685 5.51417 16.3685 7.50174C16.3685 7.82656 16.3601 8.03066 16.3197 8.29892C16.1582 9.36934 15.5578 10.2289 14.3231 10.2289C10.2351 10.2289 6.54701 8.03884 2.95063 4.29837C2.76523 4.86198 2.72163 5.44131 2.72771 6.5278C2.72853 6.67311 2.72853 6.67311 2.72882 6.81995C2.72882 9.61256 3.86019 11.1401 6.53897 11.9915L7.48951 12.2936V13.291C7.48951 14.5005 6.34365 15.639 4.66709 16.149C5.43564 16.7321 7.00741 17.0468 9.55033 17.0468H10.9139V18.4103C10.9139 20.364 8.66909 21.8936 5.27806 22.6924C6.38396 23.0312 7.85645 23.1773 9.54985 23.1773C15.842 23.1773 22.5051 18.8021 22.5051 12.2742V8.86531C22.5051 8.46472 22.6212 8.117 22.8142 7.75546C22.8896 7.6141 22.9726 7.47934 23.0751 7.32563C23.0944 7.2967 23.166 7.19185 23.2228 7.10803L23.3309 6.8919C23.506 6.54168 23.6811 6.19146 23.8561 5.84124C23.5841 5.78973 23.3175 5.7344 23.0562 5.67522Z" fill="white"/>
</svg>
